<?xml version="1.0" encoding="utf-8"?>
<!-- Generator: Adobe Illustrator 19.1.0, SVG Export Plug-In . SVG Version: 6.00 Build 0)  -->
<svg version="1.1" xmlns="http://www.w3.org/2000/svg" xmlns:xlink="http://www.w3.org/1999/xlink" x="0px" y="0px"
	 viewBox="0 0 498.9 168.4" style="enable-background:new 0 0 498.9 168.4;" xml:space="preserve">
<style type="text/css">
	.st0{fill:#DB1702;}
	.st1{fill:#FFFFFF;}
</style>
<g id="Capa_1">
	<g>
		<g>
			<g>
				<path class="st0" d="M250.8,13c-23.3,0-42.3,22.7-42.3,50.6c0,26.2,31.7,54.6,40.8,89.6c0.2,0.8,0.8,1.3,1.5,1.3
					c0.7,0,1.2-0.5,1.4-1.3c8.9-35.9,40.9-63.3,40.9-89.6C293.1,35.7,274.2,13,250.8,13z M250.8,102c-18.3,0-33.2-17.8-33.2-39.7
					c0-21.9,14.9-39.7,33.2-39.7c18.3,0,33.2,17.8,33.2,39.7C284,84.2,269.1,102,250.8,102z"/>
			</g>
		</g>
	</g>
</g>
<g id="Calque_3">
	<g>
		<path class="st1" d="M109.4,138.4c0,9.3-7.6,16.3-16.7,16.5v0.2H82.1c-9.5,0-17.3-7.2-17.3-16.7v-116c0.2-2.1,1.9-3.9,4.1-3.9h9.9
			v117.3c0,4.1,3.1,7.4,7.2,7.4h2.1c4.1,0,7.4-3.3,7.4-7.4V18.5h14V138.4z"/>
		<path class="st1" d="M187,154.3h-6.4c-7.6,0-8.7-6-9.3-8.7l-14.9-67.1v75.8h-14V18.5h6.4c7.8,0,9.1,3.7,9.9,7.6L173,96.7V18.5h14
			V154.3z"/>
	</g>
	<g>
		<path class="st1" d="M371.3,155.4h-13l-9.5-68.8l-9.3,68.8h-12.8L309.8,19.7h10.7c3.3,0,4.1,1.9,4.3,2.9l9.3,74.3l6.8-46.9
			c0.8-8,3.1-10.9,12-10.9h1.7l9.1,57.8l8.9-74.5c0.2-1,1.2-2.7,4.1-2.7h11.1L371.3,155.4z"/>
		<path class="st1" d="M435.3,155.4v-49.6c0-6.6-3.5-8.7-7.2-8.7h-7.4v58.4h-14V19.7h25.4c9.3,0,17.1,7.6,17.1,17.1v41.9
			c0,0,0.6,10.7-5,12c5.4,2.7,5,12.8,5,12.8v52H435.3z M428.1,83.9c3.7,0,7.2-1.6,7.2-7.8V39.7c0-5-3.5-7-7.2-7h-7.4v51.2H428.1z"/>
	</g>
</g>
</svg>
